<svg width="25" height="25" viewBox="0 0 25 25" fill="none" xmlns="http://www.w3.org/2000/svg">
<path d="M12.8907 23.1502C18.5569 23.1502 23.1502 18.5568 23.1502 12.8906C23.1502 7.22442 18.5569 2.63106 12.8907 2.63106C7.22447 2.63106 2.6311 7.22442 2.6311 12.8906C2.6311 18.5568 7.22447 23.1502 12.8907 23.1502Z" fill="#E6E7E8"/>
<path d="M12.1094 22.1736C17.6678 22.1736 22.1737 17.6677 22.1737 12.1093C22.1737 6.551 17.6678 2.04507 12.1094 2.04507C6.55109 2.04507 2.04517 6.551 2.04517 12.1093C2.04517 17.6677 6.55109 22.1736 12.1094 22.1736Z" fill="#265005" fill-opacity="0.83"/>
<path d="M12.1094 2.63086C17.5606 2.63086 22.0104 6.98809 22.1663 12.4023C22.169 12.3047 22.1737 12.2076 22.1737 12.1094C22.1737 6.55996 17.6588 2.04492 12.1092 2.04492C6.55962 2.04492 2.04517 6.55996 2.04517 12.1094C2.04517 12.2076 2.04985 12.3047 2.05259 12.4023C2.20845 6.98809 6.65825 2.63086 12.1094 2.63086Z" fill="white"/>
<path d="M8.09033 9.38456C8.09033 8.87558 8.25381 8.35976 8.58076 7.8373C8.90752 7.31464 9.38447 6.88202 10.0114 6.53905C10.6384 6.19628 11.3696 6.0248 12.2056 6.0248C12.9825 6.0248 13.6686 6.16815 14.2634 6.45468C14.8581 6.7414 15.3175 7.13144 15.6417 7.62421C15.9659 8.11737 16.128 8.65312 16.128 9.23183C16.128 9.68749 16.0356 10.0867 15.8507 10.4295C15.6657 10.7725 15.446 11.0684 15.1917 11.3176C14.937 11.5666 14.4804 11.9859 13.8214 12.5754C13.6391 12.7416 13.4931 12.8877 13.3833 13.0135C13.2735 13.1392 13.1917 13.2545 13.138 13.359C13.0843 13.4635 13.0429 13.568 13.0134 13.6725C12.9839 13.7769 12.9397 13.9605 12.8809 14.223C12.7792 14.7805 12.4602 15.059 11.9245 15.059C11.6458 15.059 11.4112 14.9682 11.2212 14.7859C11.031 14.6037 10.9358 14.333 10.9358 13.9742C10.9358 13.524 11.0054 13.1342 11.1448 12.8047C11.2839 12.475 11.4688 12.1859 11.6993 11.9365C11.9296 11.6873 12.2405 11.3914 12.6317 11.0484C12.9745 10.7484 13.2224 10.5221 13.3753 10.3693C13.528 10.2166 13.6567 10.0467 13.7612 9.85878C13.8657 9.67148 13.9179 9.46776 13.9179 9.24804C13.9179 8.81952 13.7585 8.45761 13.4397 8.16288C13.1208 7.86835 12.7095 7.72089 12.2058 7.72089C11.6163 7.72089 11.1823 7.86972 10.9038 8.16679C10.6251 8.46425 10.3895 8.90214 10.1966 9.48105C10.0144 10.0867 9.66865 10.3892 9.15967 10.3892C8.85947 10.3892 8.60635 10.2834 8.4001 10.0717C8.19346 9.86015 8.09033 9.63105 8.09033 9.38456Z" fill="white"/>
<path d="M11.9566 15.7207C11.2891 15.7207 10.748 16.2619 10.748 16.9295C10.748 17.5971 11.2893 18.1381 11.9566 18.1381C12.624 18.1381 13.1652 17.5969 13.1652 16.9295C13.1652 16.2619 12.624 15.7207 11.9566 15.7207Z" fill="white"/>
<path d="M18.0208 20.0072C17.7792 20.1889 17.5258 20.3611 17.2682 20.5195C17.1764 20.576 17.1477 20.6963 17.2044 20.7883C17.2411 20.8482 17.3053 20.8813 17.371 20.8813C17.4059 20.8813 17.4411 20.8719 17.4731 20.8523C17.7407 20.6877 18.004 20.5084 18.2553 20.3197C18.3415 20.2549 18.3588 20.1324 18.2942 20.0463C18.2295 19.9602 18.1069 19.943 18.0208 20.0072Z" fill="#3A2C60"/>
<path d="M12.1094 1.84981C6.4522 1.84981 1.84985 6.45215 1.84985 12.1094C1.84985 17.7666 6.4522 22.3689 12.1094 22.3689C13.6135 22.3689 15.0637 22.0494 16.4196 21.4193C16.5172 21.3738 16.5598 21.2576 16.5143 21.1598C16.4688 21.0621 16.353 21.0193 16.2547 21.065C14.9508 21.6713 13.5561 21.9785 12.1092 21.9785C6.66743 21.9785 2.24028 17.5514 2.24028 12.1096C2.24028 6.66778 6.66763 2.24043 12.1094 2.24043C17.5512 2.24043 21.9784 6.66758 21.9784 12.1094C21.9784 14.8484 20.8782 17.3959 18.8805 19.283C18.8022 19.357 18.7985 19.4807 18.8727 19.559C18.9465 19.6371 19.0702 19.6408 19.1487 19.5668C21.2254 17.6055 22.369 14.957 22.369 12.1094C22.369 6.45215 17.7666 1.84981 12.1094 1.84981Z" fill="#3A2C60"/>
<path d="M13.9519 12.7211C14.6091 12.1332 15.0722 11.708 15.3285 11.4572C15.5958 11.1955 15.8294 10.8811 16.023 10.5223C16.2226 10.152 16.3238 9.71778 16.3238 9.23184C16.3238 8.61719 16.1492 8.04005 15.8052 7.517C15.4628 6.99649 14.9728 6.57989 14.3484 6.27872C13.7296 5.98067 13.0087 5.8295 12.2058 5.8295C11.3406 5.8295 10.571 6.01075 9.91772 6.36797C9.26382 6.72579 8.75835 7.18536 8.41558 7.7338C8.07026 8.28516 7.89526 8.84063 7.89526 9.38458C7.89526 9.68282 8.01811 9.95977 8.26011 10.208C8.50347 10.458 8.8062 10.5848 9.15952 10.5848C9.57397 10.5848 10.123 10.4029 10.382 9.54298C10.5648 8.99376 10.7882 8.57598 11.0462 8.3004C11.2853 8.04551 11.6753 7.91622 12.2058 7.91622C12.6626 7.91622 13.023 8.04376 13.3072 8.30606C13.5869 8.56485 13.7226 8.87286 13.7226 9.24786C13.7226 9.43594 13.6794 9.60469 13.5908 9.76387C13.496 9.93438 13.3769 10.0916 13.2372 10.2313C13.0865 10.382 12.8394 10.6078 12.5031 10.9018C12.1068 11.2494 11.788 11.5531 11.556 11.8043C11.3107 12.0695 11.1121 12.3807 10.9652 12.7287C10.8162 13.0803 10.7408 13.4994 10.7408 13.9744C10.7408 14.3871 10.8572 14.7078 11.0863 14.9272C11.3126 15.1443 11.5949 15.2547 11.9247 15.2547C12.5572 15.2547 12.9542 14.9102 13.0718 14.2662C13.1292 14.0098 13.173 13.8281 13.2015 13.726C13.2275 13.6342 13.2646 13.541 13.312 13.4483C13.3581 13.3586 13.4316 13.2557 13.5304 13.1424C13.6359 13.0213 13.7783 12.8791 13.9519 12.7211ZM13.2361 12.8854C13.1148 13.0244 13.0259 13.1502 12.9644 13.2701C12.905 13.3856 12.8583 13.5031 12.8253 13.6199C12.7947 13.7291 12.7492 13.9176 12.689 14.1883C12.6035 14.6557 12.3677 14.8639 11.9246 14.8639C11.6956 14.8639 11.5099 14.7924 11.3564 14.6449C11.205 14.5 11.1314 14.2807 11.1314 13.9742C11.1314 13.552 11.1964 13.184 11.3249 12.8805C11.4542 12.5742 11.6287 12.301 11.8429 12.0691C12.0658 11.8279 12.3746 11.534 12.7603 11.1953C13.1029 10.8957 13.3564 10.6643 13.5132 10.5074C13.6785 10.3422 13.8193 10.1559 13.9318 9.95391C14.0521 9.73829 14.113 9.50079 14.113 9.24786C14.113 8.76485 13.931 8.35157 13.572 8.01915C13.2171 7.69161 12.7574 7.52559 12.2056 7.52559C11.5628 7.52559 11.0769 7.69649 10.7611 8.03341C10.464 8.3504 10.2117 8.8168 10.0091 9.42501C9.80151 10.1145 9.42475 10.1941 9.15913 10.1941C8.91147 10.1941 8.70893 10.1096 8.5394 9.93555C8.3685 9.76036 8.2853 9.58028 8.2853 9.38477C8.2853 8.91524 8.44038 8.4295 8.74604 7.94102C9.05307 7.44981 9.5103 7.03594 10.1046 6.71055C10.6997 6.38516 11.4064 6.22012 12.2052 6.22012C12.949 6.22012 13.6128 6.35821 14.1783 6.63067C14.7378 6.90079 15.1753 7.2711 15.4783 7.73184C15.7798 8.19024 15.9326 8.69493 15.9326 9.23204C15.9326 9.65255 15.847 10.0246 15.6786 10.3371C15.5036 10.6611 15.2939 10.9441 15.0548 11.1783C14.8027 11.4252 14.3439 11.8463 13.6896 12.4315C13.5044 12.6004 13.3515 12.7531 13.2361 12.8854Z" fill="#3A2C60"/>
<path d="M11.9566 15.5254C11.1824 15.5254 10.5527 16.1553 10.5527 16.9293C10.5527 17.7033 11.1826 18.3334 11.9566 18.3334C12.7307 18.3334 13.3605 17.7033 13.3605 16.9293C13.3605 16.1553 12.7309 15.5254 11.9566 15.5254ZM11.9566 17.943C11.3979 17.943 10.9434 17.4883 10.9434 16.9295C10.9434 16.3707 11.3979 15.9162 11.9566 15.9162C12.5154 15.9162 12.9699 16.3707 12.9699 16.9295C12.9699 17.4883 12.5154 17.943 11.9566 17.943Z" fill="#3A2C60"/>
</svg>
