<svg aria-hidden="true" style="position: absolute; width: 0; height: 0; overflow: hidden;" version="1.1" xmlns="http://www.w3.org/2000/svg" xmlns:xlink="http://www.w3.org/1999/xlink">
<defs>
<symbol id="email" viewBox="0 0 32 32">
<path fill="#47523c" style="fill: var(--color1, #47523c)" d="M21.212 16.164l10.788 6.82v-13.928l-10.788 7.108z"></path>
<path fill="#47523c" style="fill: var(--color1, #47523c)" d="M0 9.056v13.928l10.788-6.82-10.788-7.108z"></path>
<path fill="#47523c" style="fill: var(--color1, #47523c)" d="M30 5h-28c-0.998 0-1.79 0.744-1.94 1.702l15.94 10.502 15.94-10.502c-0.15-0.958-0.942-1.702-1.94-1.702z"></path>
<path fill="#47523c" style="fill: var(--color1, #47523c)" d="M19.38 17.372l-2.83 1.864c-0.168 0.11-0.358 0.164-0.55 0.164s-0.382-0.054-0.55-0.164l-2.83-1.866-12.556 7.942c0.154 0.95 0.942 1.688 1.936 1.688h28c0.994 0 1.782-0.738 1.936-1.688l-12.556-7.94z"></path>
</symbol>
<symbol id="phone" viewBox="0 0 32 32">
<path fill="#47523c" style="fill: var(--color1, #47523c)" d="M31.455 8.064c-4.127-4.34-9.616-6.731-15.455-6.731s-11.328 2.391-15.455 6.731c-0.727 0.764-0.727 2.007 0 2.771l3.075 3.233c0.724 0.759 2.003 0.759 2.727 0 1.030-1.083 2.198-1.974 3.469-2.646 0.637-0.329 1.048-1.020 1.043-1.672l0.464-3.504c3.402-1.087 5.989-1.087 9.357-0.001l0.458 3.417c0 0.739 0.392 1.413 1.033 1.766 1.276 0.675 2.446 1.566 3.476 2.648 0.361 0.381 0.845 0.59 1.363 0.59s1.003-0.209 1.364-0.589l3.082-3.242c0.727-0.764 0.727-2.007-0-2.772z"></path>
<path fill="#47523c" style="fill: var(--color1, #47523c)" d="M24.674 13.764c-0.581-1.088-1.708-1.764-2.941-1.764h-11.466c-1.233 0-2.361 0.676-2.941 1.764l-4.267 8.001c-0.256 0.482-0.392 1.024-0.392 1.568v4.667c0 1.471 1.197 2.667 2.667 2.667h21.333c1.47 0 2.667-1.196 2.667-2.667v-4.667c0-0.544-0.135-1.087-0.392-1.569l-4.267-8zM11.999 26.667c-0.736 0-1.333-0.598-1.333-1.333s0.598-1.333 1.333-1.333 1.333 0.598 1.333 1.333c0 0.735-0.598 1.333-1.333 1.333zM11.999 22.667c-0.736 0-1.333-0.598-1.333-1.333s0.598-1.333 1.333-1.333 1.333 0.598 1.333 1.333c0 0.735-0.598 1.333-1.333 1.333zM11.999 18.667c-0.736 0-1.333-0.598-1.333-1.333s0.598-1.333 1.333-1.333 1.333 0.598 1.333 1.333c0 0.735-0.598 1.333-1.333 1.333zM16 26.667c-0.736 0-1.333-0.598-1.333-1.333s0.598-1.333 1.333-1.333c0.736 0 1.333 0.598 1.333 1.333s-0.598 1.333-1.333 1.333zM16 22.667c-0.736 0-1.333-0.598-1.333-1.333s0.598-1.333 1.333-1.333c0.736 0 1.333 0.598 1.333 1.333s-0.598 1.333-1.333 1.333zM16 18.667c-0.736 0-1.333-0.598-1.333-1.333s0.598-1.333 1.333-1.333c0.736 0 1.333 0.598 1.333 1.333s-0.598 1.333-1.333 1.333zM19.999 26.667c-0.736 0-1.333-0.598-1.333-1.333s0.598-1.333 1.333-1.333 1.333 0.598 1.333 1.333c0 0.735-0.598 1.333-1.333 1.333zM19.999 22.667c-0.736 0-1.333-0.598-1.333-1.333s0.598-1.333 1.333-1.333 1.333 0.598 1.333 1.333c0 0.735-0.598 1.333-1.333 1.333zM19.999 18.667c-0.736 0-1.333-0.598-1.333-1.333s0.598-1.333 1.333-1.333 1.333 0.598 1.333 1.333c0 0.735-0.598 1.333-1.333 1.333z"></path>
</symbol>
<symbol id="telegram" viewBox="0 0 32 32">
<path fill="#039be5" style="fill: var(--color2, #039be5)" d="M16 32c8.837 0 16-7.163 16-16s-7.163-16-16-16c-8.837 0-16 7.163-16 16s7.163 16 16 16z"></path>
<path fill="#fff" style="fill: var(--color3, #fff)" d="M7.921 14.91l15.427-5.948c0.716-0.259 1.341 0.175 1.109 1.257l0.001-0.001-2.627 12.375c-0.195 0.877-0.716 1.091-1.445 0.677l-4-2.948-1.929 1.859c-0.213 0.213-0.393 0.393-0.807 0.393l0.284-4.071 7.413-6.697c0.323-0.284-0.072-0.444-0.497-0.161l-9.161 5.768-3.949-1.232c-0.857-0.272-0.876-0.857 0.181-1.271z"></path>
</symbol>
<symbol id="question" viewBox="0 0 32 32">
<path fill="#e6e7e8" style="fill: var(--color1, #e6e7e8)" d="M16.5 29.632c7.253 0 13.132-5.88 13.132-13.132s-5.879-13.132-13.132-13.132c-7.253 0-13.132 5.88-13.132 13.132s5.88 13.132 13.132 13.132z"></path>
<path fill="#265005" style="fill: var(--color2, #265005)" opacity="0.83" d="M15.5 28.382c7.115 0 12.882-5.768 12.882-12.882s-5.768-12.882-12.882-12.882c-7.115 0-12.882 5.768-12.882 12.882s5.768 12.882 12.882 12.882z"></path>
<path fill="#fff" style="fill: var(--color3, #fff)" d="M15.5 3.368c6.978 0 12.673 5.577 12.873 12.507 0.003-0.125 0.009-0.249 0.009-0.375 0-7.103-5.779-12.883-12.883-12.883s-12.882 5.779-12.882 12.883c0 0.126 0.006 0.25 0.010 0.375 0.2-6.93 5.895-12.507 12.873-12.507z"></path>
<path fill="#fff" style="fill: var(--color3, #fff)" d="M10.356 12.012c0-0.652 0.209-1.312 0.628-1.98s1.029-1.223 1.831-1.662c0.803-0.439 1.739-0.658 2.809-0.658 0.994 0 1.873 0.183 2.634 0.55s1.349 0.866 1.764 1.497c0.415 0.631 0.622 1.317 0.622 2.058 0 0.583-0.118 1.094-0.355 1.533s-0.518 0.818-0.844 1.137c-0.326 0.319-0.91 0.855-1.754 1.61-0.233 0.213-0.42 0.4-0.561 0.561s-0.245 0.308-0.314 0.442-0.122 0.268-0.16 0.401c-0.038 0.134-0.094 0.369-0.17 0.705-0.13 0.714-0.538 1.070-1.224 1.070-0.357 0-0.657-0.116-0.9-0.35s-0.365-0.58-0.365-1.039c0-0.576 0.089-1.075 0.268-1.497s0.415-0.792 0.71-1.111c0.295-0.319 0.693-0.698 1.193-1.137 0.439-0.384 0.756-0.674 0.952-0.869s0.36-0.413 0.494-0.653c0.134-0.24 0.201-0.501 0.201-0.782 0-0.549-0.204-1.012-0.612-1.389s-0.935-0.566-1.579-0.566c-0.755 0-1.31 0.191-1.667 0.571s-0.658 0.941-0.905 1.682c-0.233 0.775-0.676 1.162-1.327 1.162-0.384 0-0.708-0.135-0.972-0.406s-0.396-0.564-0.396-0.88z"></path>
<path fill="#fff" style="fill: var(--color3, #fff)" d="M15.304 20.122c-0.854 0-1.547 0.693-1.547 1.547s0.693 1.547 1.547 1.547c0.854 0 1.547-0.693 1.547-1.547s-0.693-1.547-1.547-1.547z"></path>
<path fill="#3a2c60" style="fill: var(--color4, #3a2c60)" d="M23.067 25.609c-0.309 0.233-0.634 0.453-0.963 0.656-0.117 0.072-0.154 0.226-0.082 0.344 0.047 0.077 0.129 0.119 0.213 0.119 0.045 0 0.090-0.012 0.131-0.037 0.343-0.211 0.68-0.44 1.001-0.682 0.11-0.083 0.132-0.24 0.050-0.35s-0.24-0.132-0.35-0.050z"></path>
<path fill="#3a2c60" style="fill: var(--color4, #3a2c60)" d="M15.5 2.368c-7.241 0-13.132 5.891-13.132 13.132s5.891 13.132 13.132 13.132c1.925 0 3.782-0.409 5.517-1.215 0.125-0.058 0.179-0.207 0.121-0.332s-0.206-0.18-0.332-0.121c-1.669 0.776-3.454 1.169-5.306 1.169-6.965 0-12.632-5.667-12.632-12.632s5.667-12.633 12.632-12.633c6.965 0 12.632 5.667 12.632 12.632 0 3.506-1.408 6.767-3.965 9.182-0.1 0.095-0.105 0.253-0.010 0.353s0.253 0.105 0.353 0.010c2.658-2.51 4.122-5.901 4.122-9.545 0-7.241-5.891-13.132-13.132-13.132z"></path>
<path fill="#3a2c60" style="fill: var(--color4, #3a2c60)" d="M17.858 16.283c0.841-0.752 1.434-1.297 1.762-1.618 0.342-0.335 0.641-0.737 0.889-1.197 0.256-0.474 0.385-1.030 0.385-1.652 0-0.787-0.224-1.526-0.664-2.195-0.438-0.666-1.065-1.2-1.865-1.585-0.792-0.381-1.715-0.575-2.743-0.575-1.107 0-2.093 0.232-2.929 0.689s-1.484 1.046-1.923 1.748c-0.442 0.706-0.666 1.417-0.666 2.113 0 0.382 0.157 0.736 0.467 1.054 0.312 0.32 0.699 0.482 1.151 0.482 0.53 0 1.233-0.233 1.565-1.334 0.234-0.703 0.52-1.238 0.85-1.591 0.306-0.326 0.805-0.492 1.484-0.492 0.585 0 1.046 0.163 1.41 0.499 0.358 0.331 0.532 0.726 0.532 1.206 0 0.241-0.055 0.457-0.169 0.661-0.121 0.218-0.274 0.419-0.453 0.598-0.193 0.193-0.509 0.482-0.94 0.858-0.507 0.445-0.915 0.834-1.212 1.155-0.314 0.339-0.568 0.738-0.756 1.183-0.191 0.45-0.287 0.986-0.287 1.595 0 0.528 0.149 0.939 0.442 1.22 0.29 0.278 0.651 0.419 1.073 0.419 0.81 0 1.318-0.441 1.468-1.265 0.073-0.328 0.13-0.561 0.166-0.691 0.033-0.117 0.081-0.237 0.141-0.355 0.059-0.115 0.153-0.247 0.28-0.392 0.135-0.155 0.317-0.337 0.54-0.539zM16.942 16.493c-0.155 0.178-0.269 0.339-0.348 0.492-0.076 0.148-0.136 0.298-0.178 0.448-0.039 0.14-0.097 0.381-0.174 0.728-0.109 0.598-0.411 0.865-0.978 0.865-0.293 0-0.531-0.092-0.727-0.28-0.194-0.185-0.288-0.466-0.288-0.858 0-0.54 0.083-1.011 0.248-1.4 0.165-0.392 0.389-0.742 0.663-1.039 0.285-0.309 0.681-0.685 1.174-1.118 0.439-0.383 0.763-0.68 0.964-0.88 0.212-0.211 0.392-0.45 0.536-0.708 0.154-0.276 0.232-0.58 0.232-0.904 0-0.618-0.233-1.147-0.692-1.573-0.454-0.419-1.043-0.632-1.749-0.632-0.823 0-1.445 0.219-1.849 0.65-0.38 0.406-0.703 1.003-0.963 1.781-0.266 0.883-0.748 0.984-1.088 0.984-0.317 0-0.576-0.108-0.793-0.331-0.219-0.224-0.325-0.455-0.325-0.705 0-0.601 0.198-1.223 0.59-1.848 0.393-0.629 0.978-1.159 1.739-1.575s1.666-0.628 2.689-0.628c0.952 0 1.802 0.177 2.526 0.526 0.716 0.346 1.276 0.82 1.664 1.409 0.386 0.587 0.581 1.233 0.581 1.92 0 0.538-0.11 1.014-0.325 1.414-0.224 0.415-0.492 0.777-0.798 1.077-0.323 0.316-0.91 0.855-1.747 1.604-0.237 0.216-0.433 0.412-0.58 0.581z"></path>
<path fill="#3a2c60" style="fill: var(--color4, #3a2c60)" d="M15.304 19.872c-0.991 0-1.797 0.806-1.797 1.797s0.806 1.797 1.797 1.797c0.991 0 1.797-0.807 1.797-1.797s-0.806-1.797-1.797-1.797zM15.304 22.967c-0.715 0-1.297-0.582-1.297-1.297s0.582-1.297 1.297-1.297c0.715 0 1.297 0.582 1.297 1.297s-0.582 1.297-1.297 1.297z"></path>
</symbol>
</defs>
</svg>
