<svg aria-hidden="true" style="position: absolute; width: 0; height: 0; overflow: hidden;" version="1.1" xmlns="http://www.w3.org/2000/svg" xmlns:xlink="http://www.w3.org/1999/xlink">
<defs>
<symbol id="email" viewBox="0 0 32 32">
<path fill="#47523c" style="fill: var(--color1, #47523c)" d="M21.212 16.164l10.788 6.82v-13.928l-10.788 7.108z"></path>
<path fill="#47523c" style="fill: var(--color1, #47523c)" d="M0 9.056v13.928l10.788-6.82-10.788-7.108z"></path>
<path fill="#47523c" style="fill: var(--color1, #47523c)" d="M30 5h-28c-0.998 0-1.79 0.744-1.94 1.702l15.94 10.502 15.94-10.502c-0.15-0.958-0.942-1.702-1.94-1.702z"></path>
<path fill="#47523c" style="fill: var(--color1, #47523c)" d="M19.38 17.372l-2.83 1.864c-0.168 0.11-0.358 0.164-0.55 0.164s-0.382-0.054-0.55-0.164l-2.83-1.866-12.556 7.942c0.154 0.95 0.942 1.688 1.936 1.688h28c0.994 0 1.782-0.738 1.936-1.688l-12.556-7.94z"></path>
</symbol>
<symbol id="phone" viewBox="0 0 32 32">
<path fill="#47523c" style="fill: var(--color1, #47523c)" d="M31.455 8.064c-4.127-4.34-9.616-6.731-15.455-6.731s-11.328 2.391-15.455 6.731c-0.727 0.764-0.727 2.007 0 2.771l3.075 3.233c0.724 0.759 2.003 0.759 2.727 0 1.030-1.083 2.198-1.974 3.469-2.646 0.637-0.329 1.048-1.020 1.043-1.672l0.464-3.504c3.402-1.087 5.989-1.087 9.357-0.001l0.458 3.417c0 0.739 0.392 1.413 1.033 1.766 1.276 0.675 2.446 1.566 3.476 2.648 0.361 0.381 0.845 0.59 1.363 0.59s1.003-0.209 1.364-0.589l3.082-3.242c0.727-0.764 0.727-2.007-0-2.772z"></path>
<path fill="#47523c" style="fill: var(--color1, #47523c)" d="M24.674 13.764c-0.581-1.088-1.708-1.764-2.941-1.764h-11.466c-1.233 0-2.361 0.676-2.941 1.764l-4.267 8.001c-0.256 0.482-0.392 1.024-0.392 1.568v4.667c0 1.471 1.197 2.667 2.667 2.667h21.333c1.47 0 2.667-1.196 2.667-2.667v-4.667c0-0.544-0.135-1.087-0.392-1.569l-4.267-8zM11.999 26.667c-0.736 0-1.333-0.598-1.333-1.333s0.598-1.333 1.333-1.333 1.333 0.598 1.333 1.333c0 0.735-0.598 1.333-1.333 1.333zM11.999 22.667c-0.736 0-1.333-0.598-1.333-1.333s0.598-1.333 1.333-1.333 1.333 0.598 1.333 1.333c0 0.735-0.598 1.333-1.333 1.333zM11.999 18.667c-0.736 0-1.333-0.598-1.333-1.333s0.598-1.333 1.333-1.333 1.333 0.598 1.333 1.333c0 0.735-0.598 1.333-1.333 1.333zM16 26.667c-0.736 0-1.333-0.598-1.333-1.333s0.598-1.333 1.333-1.333c0.736 0 1.333 0.598 1.333 1.333s-0.598 1.333-1.333 1.333zM16 22.667c-0.736 0-1.333-0.598-1.333-1.333s0.598-1.333 1.333-1.333c0.736 0 1.333 0.598 1.333 1.333s-0.598 1.333-1.333 1.333zM16 18.667c-0.736 0-1.333-0.598-1.333-1.333s0.598-1.333 1.333-1.333c0.736 0 1.333 0.598 1.333 1.333s-0.598 1.333-1.333 1.333zM19.999 26.667c-0.736 0-1.333-0.598-1.333-1.333s0.598-1.333 1.333-1.333 1.333 0.598 1.333 1.333c0 0.735-0.598 1.333-1.333 1.333zM19.999 22.667c-0.736 0-1.333-0.598-1.333-1.333s0.598-1.333 1.333-1.333 1.333 0.598 1.333 1.333c0 0.735-0.598 1.333-1.333 1.333zM19.999 18.667c-0.736 0-1.333-0.598-1.333-1.333s0.598-1.333 1.333-1.333 1.333 0.598 1.333 1.333c0 0.735-0.598 1.333-1.333 1.333z"></path>
</symbol>
<symbol id="telegram" viewBox="0 0 32 32">
<path fill="#039be5" style="fill: var(--color2, #039be5)" d="M16 32c8.837 0 16-7.163 16-16s-7.163-16-16-16c-8.837 0-16 7.163-16 16s7.163 16 16 16z"></path>
<path fill="#fff" style="fill: var(--color3, #fff)" d="M7.921 14.91l15.427-5.948c0.716-0.259 1.341 0.175 1.109 1.257l0.001-0.001-2.627 12.375c-0.195 0.877-0.716 1.091-1.445 0.677l-4-2.948-1.929 1.859c-0.213 0.213-0.393 0.393-0.807 0.393l0.284-4.071 7.413-6.697c0.323-0.284-0.072-0.444-0.497-0.161l-9.161 5.768-3.949-1.232c-0.857-0.272-0.876-0.857 0.181-1.271z"></path>
</symbol>
</defs>
</svg>
