<svg aria-hidden="true" style="position: absolute; width: 0; height: 0; overflow: hidden;" version="1.1" xmlns="http://www.w3.org/2000/svg" xmlns:xlink="http://www.w3.org/1999/xlink">
<defs>
<symbol id="email" viewBox="0 0 32 32">
<path d="M21.212 16.164l10.788 6.82v-13.928l-10.788 7.108z"></path>
<path d="M0 9.056v13.928l10.788-6.82-10.788-7.108z"></path>
<path d="M30 5h-28c-0.998 0-1.79 0.744-1.94 1.702l15.94 10.502 15.94-10.502c-0.15-0.958-0.942-1.702-1.94-1.702z"></path>
<path d="M19.38 17.372l-2.83 1.864c-0.168 0.11-0.358 0.164-0.55 0.164s-0.382-0.054-0.55-0.164l-2.83-1.866-12.556 7.942c0.154 0.95 0.942 1.688 1.936 1.688h28c0.994 0 1.782-0.738 1.936-1.688l-12.556-7.94z"></path>
</symbol>
<symbol id="phone" viewBox="0 0 32 32">
<path d="M31.455 8.064c-4.127-4.34-9.616-6.731-15.455-6.731s-11.328 2.391-15.455 6.731c-0.727 0.764-0.727 2.007 0 2.771l3.075 3.233c0.724 0.759 2.003 0.759 2.727 0 1.030-1.083 2.198-1.974 3.469-2.646 0.637-0.329 1.048-1.020 1.043-1.672l0.464-3.504c3.402-1.087 5.989-1.087 9.357-0.001l0.458 3.417c0 0.739 0.392 1.413 1.033 1.766 1.276 0.675 2.446 1.566 3.476 2.648 0.361 0.381 0.845 0.59 1.363 0.59s1.003-0.209 1.364-0.589l3.082-3.242c0.727-0.764 0.727-2.007-0-2.772z"></path>
<path d="M24.674 13.764c-0.581-1.088-1.708-1.764-2.941-1.764h-11.466c-1.233 0-2.361 0.676-2.941 1.764l-4.267 8.001c-0.256 0.482-0.392 1.024-0.392 1.568v4.667c0 1.471 1.197 2.667 2.667 2.667h21.333c1.47 0 2.667-1.196 2.667-2.667v-4.667c0-0.544-0.135-1.087-0.392-1.569l-4.267-8zM11.999 26.667c-0.736 0-1.333-0.598-1.333-1.333s0.598-1.333 1.333-1.333 1.333 0.598 1.333 1.333c0 0.735-0.598 1.333-1.333 1.333zM11.999 22.667c-0.736 0-1.333-0.598-1.333-1.333s0.598-1.333 1.333-1.333 1.333 0.598 1.333 1.333c0 0.735-0.598 1.333-1.333 1.333zM11.999 18.667c-0.736 0-1.333-0.598-1.333-1.333s0.598-1.333 1.333-1.333 1.333 0.598 1.333 1.333c0 0.735-0.598 1.333-1.333 1.333zM16 26.667c-0.736 0-1.333-0.598-1.333-1.333s0.598-1.333 1.333-1.333c0.736 0 1.333 0.598 1.333 1.333s-0.598 1.333-1.333 1.333zM16 22.667c-0.736 0-1.333-0.598-1.333-1.333s0.598-1.333 1.333-1.333c0.736 0 1.333 0.598 1.333 1.333s-0.598 1.333-1.333 1.333zM16 18.667c-0.736 0-1.333-0.598-1.333-1.333s0.598-1.333 1.333-1.333c0.736 0 1.333 0.598 1.333 1.333s-0.598 1.333-1.333 1.333zM19.999 26.667c-0.736 0-1.333-0.598-1.333-1.333s0.598-1.333 1.333-1.333 1.333 0.598 1.333 1.333c0 0.735-0.598 1.333-1.333 1.333zM19.999 22.667c-0.736 0-1.333-0.598-1.333-1.333s0.598-1.333 1.333-1.333 1.333 0.598 1.333 1.333c0 0.735-0.598 1.333-1.333 1.333zM19.999 18.667c-0.736 0-1.333-0.598-1.333-1.333s0.598-1.333 1.333-1.333 1.333 0.598 1.333 1.333c0 0.735-0.598 1.333-1.333 1.333z"></path>
</symbol>
<symbol id="telegram" viewBox="0 0 32 32">
<path fill="#039be5" style="fill: var(--color2, #039be5)" d="M16 32c8.837 0 16-7.163 16-16s-7.163-16-16-16c-8.837 0-16 7.163-16 16s7.163 16 16 16z"></path>
<path fill="#fff" style="fill: var(--color3, #fff)" d="M7.921 14.91l15.427-5.948c0.716-0.259 1.341 0.175 1.109 1.257l0.001-0.001-2.627 12.375c-0.195 0.877-0.716 1.091-1.445 0.677l-4-2.948-1.929 1.859c-0.213 0.213-0.393 0.393-0.807 0.393l0.284-4.071 7.413-6.697c0.323-0.284-0.072-0.444-0.497-0.161l-9.161 5.768-3.949-1.232c-0.857-0.272-0.876-0.857 0.181-1.271z"></path>
</symbol>
<symbol id="question" viewBox="0 0 32 32">
<path fill="#e6e7e8" style="fill: var(--color1, #e6e7e8)" d="M16.5 29.632c7.253 0 13.132-5.88 13.132-13.132s-5.879-13.132-13.132-13.132c-7.253 0-13.132 5.88-13.132 13.132s5.88 13.132 13.132 13.132z"></path>
<path fill="#265005" style="fill: var(--color2, #265005)" opacity="0.83" d="M15.5 28.382c7.115 0 12.882-5.768 12.882-12.882s-5.768-12.882-12.882-12.882c-7.115 0-12.882 5.768-12.882 12.882s5.768 12.882 12.882 12.882z"></path>
<path fill="#fff" style="fill: var(--color3, #fff)" d="M15.5 3.368c6.978 0 12.673 5.577 12.873 12.507 0.003-0.125 0.009-0.249 0.009-0.375 0-7.103-5.779-12.883-12.883-12.883s-12.882 5.779-12.882 12.883c0 0.126 0.006 0.25 0.010 0.375 0.2-6.93 5.895-12.507 12.873-12.507z"></path>
<path fill="#fff" style="fill: var(--color3, #fff)" d="M10.356 12.012c0-0.652 0.209-1.312 0.628-1.98s1.029-1.223 1.831-1.662c0.803-0.439 1.739-0.658 2.809-0.658 0.994 0 1.873 0.183 2.634 0.55s1.349 0.866 1.764 1.497c0.415 0.631 0.622 1.317 0.622 2.058 0 0.583-0.118 1.094-0.355 1.533s-0.518 0.818-0.844 1.137c-0.326 0.319-0.91 0.855-1.754 1.61-0.233 0.213-0.42 0.4-0.561 0.561s-0.245 0.308-0.314 0.442-0.122 0.268-0.16 0.401c-0.038 0.134-0.094 0.369-0.17 0.705-0.13 0.714-0.538 1.070-1.224 1.070-0.357 0-0.657-0.116-0.9-0.35s-0.365-0.58-0.365-1.039c0-0.576 0.089-1.075 0.268-1.497s0.415-0.792 0.71-1.111c0.295-0.319 0.693-0.698 1.193-1.137 0.439-0.384 0.756-0.674 0.952-0.869s0.36-0.413 0.494-0.653c0.134-0.24 0.201-0.501 0.201-0.782 0-0.549-0.204-1.012-0.612-1.389s-0.935-0.566-1.579-0.566c-0.755 0-1.31 0.191-1.667 0.571s-0.658 0.941-0.905 1.682c-0.233 0.775-0.676 1.162-1.327 1.162-0.384 0-0.708-0.135-0.972-0.406s-0.396-0.564-0.396-0.88z"></path>
<path fill="#fff" style="fill: var(--color3, #fff)" d="M15.304 20.122c-0.854 0-1.547 0.693-1.547 1.547s0.693 1.547 1.547 1.547c0.854 0 1.547-0.693 1.547-1.547s-0.693-1.547-1.547-1.547z"></path>
<path fill="#3a2c60" style="fill: var(--color4, #3a2c60)" d="M23.067 25.609c-0.309 0.233-0.634 0.453-0.963 0.656-0.117 0.072-0.154 0.226-0.082 0.344 0.047 0.077 0.129 0.119 0.213 0.119 0.045 0 0.090-0.012 0.131-0.037 0.343-0.211 0.68-0.44 1.001-0.682 0.11-0.083 0.132-0.24 0.050-0.35s-0.24-0.132-0.35-0.050z"></path>
<path fill="#3a2c60" style="fill: var(--color4, #3a2c60)" d="M15.5 2.368c-7.241 0-13.132 5.891-13.132 13.132s5.891 13.132 13.132 13.132c1.925 0 3.782-0.409 5.517-1.215 0.125-0.058 0.179-0.207 0.121-0.332s-0.206-0.18-0.332-0.121c-1.669 0.776-3.454 1.169-5.306 1.169-6.965 0-12.632-5.667-12.632-12.632s5.667-12.633 12.632-12.633c6.965 0 12.632 5.667 12.632 12.632 0 3.506-1.408 6.767-3.965 9.182-0.1 0.095-0.105 0.253-0.010 0.353s0.253 0.105 0.353 0.010c2.658-2.51 4.122-5.901 4.122-9.545 0-7.241-5.891-13.132-13.132-13.132z"></path>
<path fill="#3a2c60" style="fill: var(--color4, #3a2c60)" d="M17.858 16.283c0.841-0.752 1.434-1.297 1.762-1.618 0.342-0.335 0.641-0.737 0.889-1.197 0.256-0.474 0.385-1.030 0.385-1.652 0-0.787-0.224-1.526-0.664-2.195-0.438-0.666-1.065-1.2-1.865-1.585-0.792-0.381-1.715-0.575-2.743-0.575-1.107 0-2.093 0.232-2.929 0.689s-1.484 1.046-1.923 1.748c-0.442 0.706-0.666 1.417-0.666 2.113 0 0.382 0.157 0.736 0.467 1.054 0.312 0.32 0.699 0.482 1.151 0.482 0.53 0 1.233-0.233 1.565-1.334 0.234-0.703 0.52-1.238 0.85-1.591 0.306-0.326 0.805-0.492 1.484-0.492 0.585 0 1.046 0.163 1.41 0.499 0.358 0.331 0.532 0.726 0.532 1.206 0 0.241-0.055 0.457-0.169 0.661-0.121 0.218-0.274 0.419-0.453 0.598-0.193 0.193-0.509 0.482-0.94 0.858-0.507 0.445-0.915 0.834-1.212 1.155-0.314 0.339-0.568 0.738-0.756 1.183-0.191 0.45-0.287 0.986-0.287 1.595 0 0.528 0.149 0.939 0.442 1.22 0.29 0.278 0.651 0.419 1.073 0.419 0.81 0 1.318-0.441 1.468-1.265 0.073-0.328 0.13-0.561 0.166-0.691 0.033-0.117 0.081-0.237 0.141-0.355 0.059-0.115 0.153-0.247 0.28-0.392 0.135-0.155 0.317-0.337 0.54-0.539zM16.942 16.493c-0.155 0.178-0.269 0.339-0.348 0.492-0.076 0.148-0.136 0.298-0.178 0.448-0.039 0.14-0.097 0.381-0.174 0.728-0.109 0.598-0.411 0.865-0.978 0.865-0.293 0-0.531-0.092-0.727-0.28-0.194-0.185-0.288-0.466-0.288-0.858 0-0.54 0.083-1.011 0.248-1.4 0.165-0.392 0.389-0.742 0.663-1.039 0.285-0.309 0.681-0.685 1.174-1.118 0.439-0.383 0.763-0.68 0.964-0.88 0.212-0.211 0.392-0.45 0.536-0.708 0.154-0.276 0.232-0.58 0.232-0.904 0-0.618-0.233-1.147-0.692-1.573-0.454-0.419-1.043-0.632-1.749-0.632-0.823 0-1.445 0.219-1.849 0.65-0.38 0.406-0.703 1.003-0.963 1.781-0.266 0.883-0.748 0.984-1.088 0.984-0.317 0-0.576-0.108-0.793-0.331-0.219-0.224-0.325-0.455-0.325-0.705 0-0.601 0.198-1.223 0.59-1.848 0.393-0.629 0.978-1.159 1.739-1.575s1.666-0.628 2.689-0.628c0.952 0 1.802 0.177 2.526 0.526 0.716 0.346 1.276 0.82 1.664 1.409 0.386 0.587 0.581 1.233 0.581 1.92 0 0.538-0.11 1.014-0.325 1.414-0.224 0.415-0.492 0.777-0.798 1.077-0.323 0.316-0.91 0.855-1.747 1.604-0.237 0.216-0.433 0.412-0.58 0.581z"></path>
<path fill="#3a2c60" style="fill: var(--color4, #3a2c60)" d="M15.304 19.872c-0.991 0-1.797 0.806-1.797 1.797s0.806 1.797 1.797 1.797c0.991 0 1.797-0.807 1.797-1.797s-0.806-1.797-1.797-1.797zM15.304 22.967c-0.715 0-1.297-0.582-1.297-1.297s0.582-1.297 1.297-1.297c0.715 0 1.297 0.582 1.297 1.297s-0.582 1.297-1.297 1.297z"></path>
</symbol>
<symbol id="home" viewBox="0 0 32 32">
<path fill="#f4f4f4" style="fill: var(--color1, #f4f4f4)" d="M31.137 13.918c-0.001-0.001-0.002-0.001-0.002-0.002l-13.053-13.053c-0.556-0.557-1.296-0.863-2.083-0.863s-1.527 0.306-2.083 0.863l-13.047 13.046c-0.004 0.004-0.009 0.009-0.013 0.013-1.143 1.149-1.141 3.014 0.006 4.16 0.523 0.524 1.215 0.827 1.954 0.859 0.030 0.003 0.061 0.004 0.091 0.004h0.52v9.606c0 1.901 1.547 3.448 3.448 3.448h5.107c0.518 0 0.938-0.42 0.938-0.937v-7.531c0-0.867 0.706-1.573 1.573-1.573h3.012c0.867 0 1.573 0.706 1.573 1.573v7.531c0 0.518 0.42 0.937 0.938 0.937h5.107c1.901 0 3.448-1.547 3.448-3.448v-9.606h0.482c0.787 0 1.526-0.306 2.083-0.863 1.148-1.148 1.148-3.016 0.002-4.165z"></path>
<path fill="#c4c4c4" style="fill: var(--color2, #c4c4c4)" d="M31.137 13.918c-0.001-0.001-0.001-0.001-0.002-0.002l-13.053-13.053c-0.556-0.557-1.296-0.863-2.083-0.863h-0v21.958h1.506c0.867 0 1.573 0.706 1.573 1.573v7.531c0 0.518 0.42 0.937 0.938 0.937h5.107c1.901 0 3.448-1.547 3.448-3.448v-9.606h0.482c0.787 0 1.526-0.306 2.083-0.863 1.148-1.148 1.148-3.016 0.001-4.165z"></path>
</symbol>
<symbol id="r_arrow" viewBox="0 0 21 32">
<path d="M20.27 15.507l-10.203-15.304c-0.087-0.13-0.205-0.203-0.328-0.203h-8.348c-0.256-0.001-0.464 0.31-0.465 0.694-0 0.185 0.049 0.363 0.136 0.494l9.876 14.812-9.876 14.812c-0.181 0.271-0.182 0.712-0.001 0.984 0.087 0.131 0.206 0.205 0.329 0.204h8.348c0.123 0 0.241-0.073 0.328-0.203l10.203-15.304c0.181-0.271 0.182-0.712 0.001-0.984-0-0-0.001-0.001-0.001-0.001z"></path>
</symbol>
<symbol id="l_arrow" viewBox="0 0 20 32">
<path d="M0.136 15.507l10.202-15.304c0.087-0.13 0.205-0.203 0.328-0.203h8.347c0.256-0.001 0.464 0.31 0.465 0.694 0 0.185-0.049 0.363-0.136 0.494l-9.874 14.812 9.874 14.812c0.181 0.271 0.182 0.712 0.001 0.984-0.087 0.131-0.206 0.205-0.329 0.204h-8.347c-0.123 0-0.241-0.073-0.328-0.203l-10.202-15.304c-0.181-0.271-0.182-0.712-0.001-0.984 0-0 0.001-0.001 0.001-0.001z"></path>
</symbol>
<symbol id="library" viewBox="0 0 32 32">
<path fill="#d7d7d7" style="fill: var(--color1, #d7d7d7)" d="M8.533 6.934v-2.133c0-0.295-0.239-0.533-0.533-0.533h-7.467c-0.295 0-0.533 0.239-0.533 0.533v2.133h8.533z"></path>
<path fill="#d7d7d7" style="fill: var(--color1, #d7d7d7)" d="M0 8v17.6h8.533v-17.6h-8.533zM6.4 14.934h-4.267c-0.295 0-0.533-0.239-0.533-0.533v-4.267c0-0.294 0.239-0.533 0.533-0.533h4.267c0.295 0 0.533 0.239 0.533 0.533v4.267c0 0.295-0.239 0.533-0.533 0.533z"></path>
<path fill="#d7d7d7" style="fill: var(--color1, #d7d7d7)" d="M0 28.8v2.667c0 0.294 0.239 0.533 0.533 0.533h7.467c0.295 0 0.533-0.239 0.533-0.533v-2.667h-8.533z"></path>
<path fill="#d7d7d7" style="fill: var(--color1, #d7d7d7)" d="M0 26.667h8.533v1.067h-8.533v-1.067z"></path>
<path fill="#d7d7d7" style="fill: var(--color1, #d7d7d7)" d="M9.6 26.667h6.933v1.067h-6.933v-1.067z"></path>
<path fill="#d7d7d7" style="fill: var(--color1, #d7d7d7)" d="M16.533 2.134v-1.6c0-0.295-0.239-0.533-0.533-0.533h-5.867c-0.294 0-0.533 0.239-0.533 0.533v1.6h6.933z"></path>
<path fill="#d7d7d7" style="fill: var(--color1, #d7d7d7)" d="M9.6 5.867h6.933v19.733h-6.933v-19.733z"></path>
<path fill="#d7d7d7" style="fill: var(--color1, #d7d7d7)" d="M9.6 28.8v2.667c0 0.294 0.239 0.533 0.533 0.533h5.867c0.294 0 0.533-0.239 0.533-0.533v-2.667h-6.933z"></path>
<path fill="#d7d7d7" style="fill: var(--color1, #d7d7d7)" d="M9.6 3.201h6.933v1.6h-6.933v-1.6z"></path>
<path fill="#d7d7d7" style="fill: var(--color1, #d7d7d7)" d="M17.587 11.045l0.285 1.095 9.032-2.409-0.286-1.096-9.032 2.409z"></path>
<path fill="#d7d7d7" style="fill: var(--color1, #d7d7d7)" d="M22.044 28.13l9.032-2.409-0.572-2.192-9.032 2.409 0.572 2.192z"></path>
<path fill="#d7d7d7" style="fill: var(--color1, #d7d7d7)" d="M30.235 22.497l-3.061-11.733-9.032 2.409 3.061 11.733 9.032-2.409z"></path>
<path fill="#d7d7d7" style="fill: var(--color1, #d7d7d7)" d="M17.317 10.013l9.032-2.408-0.766-2.937c-0.079-0.284-0.369-0.454-0.656-0.384l-8 2.133c-0.282 0.077-0.451 0.367-0.379 0.651l0.769 2.946z"></path>
<path fill="#d7d7d7" style="fill: var(--color1, #d7d7d7)" d="M31.345 26.753l-9.032 2.409 0.636 2.438c0.037 0.137 0.127 0.255 0.251 0.326 0.080 0.049 0.173 0.075 0.267 0.075 0.047 0 0.093-0.005 0.139-0.016l8-2.133c0.282-0.077 0.451-0.367 0.379-0.651l-0.639-2.447z"></path>
</symbol>
<symbol id="schedule" viewBox="0 0 32 32">
<path fill="#e5e5e5" style="fill: var(--color2, #e5e5e5)" d="M32 10.563c0-2.088 0-3.549 0-3.688 0-1.551-1.262-2.813-2.813-2.813h-0.375v3.438c0 0.518-0.42 0.938-0.938 0.938s-0.938-0.42-0.938-0.938c0-1.052 0-3.952 0-5 0-0.518-0.42-0.938-0.938-0.938s-0.938 0.42-0.938 0.938v1.563h-6.25v3.438c0 0.518-0.42 0.938-0.938 0.938s-0.938-0.42-0.938-0.938c0-1.052 0-3.952 0-5 0-0.518-0.42-0.938-0.938-0.938s-0.938 0.42-0.938 0.938v1.563h-6.25v3.438c0 0.518-0.42 0.938-0.938 0.938s-0.938-0.42-0.938-0.938c0-1.052 0-3.952 0-5 0-0.518-0.42-0.938-0.938-0.938s-0.938 0.42-0.938 0.938v1.563h-2.25c-1.551 0-2.813 1.262-2.813 2.813v3.688h32z"></path>
<path fill="#e5e5e5" style="fill: var(--color2, #e5e5e5)" d="M0 12.438v15.187c0 1.551 1.262 2.813 2.813 2.813h26.375c1.551 0 2.813-1.262 2.813-2.813 0-0.401 0-9.176 0-15.187-0.583 0-31.677 0-32 0zM9 25.438h-2c-0.518 0-0.938-0.42-0.938-0.938s0.42-0.938 0.938-0.938h2c0.518 0 0.938 0.42 0.938 0.938s-0.42 0.938-0.938 0.938zM9 21.438h-2c-0.518 0-0.938-0.42-0.938-0.938s0.42-0.938 0.938-0.938h2c0.518 0 0.938 0.42 0.938 0.938s-0.42 0.938-0.938 0.938zM9 17.438h-2c-0.518 0-0.938-0.42-0.938-0.938s0.42-0.938 0.938-0.938h2c0.518 0 0.938 0.42 0.938 0.938s-0.42 0.938-0.938 0.938zM17 25.438h-2c-0.518 0-0.938-0.42-0.938-0.938s0.42-0.938 0.938-0.938h2c0.518 0 0.938 0.42 0.938 0.938s-0.42 0.938-0.938 0.938zM17 21.438h-2c-0.518 0-0.938-0.42-0.938-0.938s0.42-0.938 0.938-0.938h2c0.518 0 0.938 0.42 0.938 0.938s-0.42 0.938-0.938 0.938zM17 17.438h-2c-0.518 0-0.938-0.42-0.938-0.938s0.42-0.938 0.938-0.938h2c0.518 0 0.938 0.42 0.938 0.938s-0.42 0.938-0.938 0.938zM25 25.438h-2c-0.518 0-0.938-0.42-0.938-0.938s0.42-0.938 0.938-0.938h2c0.518 0 0.938 0.42 0.938 0.938s-0.42 0.938-0.938 0.938zM25 21.438h-2c-0.518 0-0.938-0.42-0.938-0.938s0.42-0.938 0.938-0.938h2c0.518 0 0.938 0.42 0.938 0.938s-0.42 0.938-0.938 0.938zM25 17.438h-2c-0.518 0-0.938-0.42-0.938-0.938s0.42-0.938 0.938-0.938h2c0.518 0 0.938 0.42 0.938 0.938s-0.42 0.938-0.938 0.938z"></path>
</symbol>
<symbol id="site" viewBox="0 0 32 32">
<path fill="#f4f4f4" style="fill: var(--color3, #f4f4f4)" d="M3.732 2.68c0 0.294-0.239 0.533-0.533 0.533s-0.533-0.239-0.533-0.533c0-0.294 0.239-0.533 0.533-0.533s0.533 0.239 0.533 0.533z"></path>
<path fill="#f4f4f4" style="fill: var(--color3, #f4f4f4)" d="M5.864 2.68c0 0.294-0.239 0.533-0.533 0.533s-0.533-0.239-0.533-0.533c0-0.294 0.239-0.533 0.533-0.533s0.533 0.239 0.533 0.533z"></path>
<path fill="#f4f4f4" style="fill: var(--color3, #f4f4f4)" d="M7.997 2.68c0 0.294-0.239 0.533-0.533 0.533s-0.533-0.239-0.533-0.533c0-0.294 0.239-0.533 0.533-0.533s0.533 0.239 0.533 0.533z"></path>
<path fill="#f4f4f4" style="fill: var(--color3, #f4f4f4)" d="M11.195 2.146c-0.294 0-0.533 0.239-0.533 0.533s0.239 0.533 0.533 0.533h13.327c0.294 0 0.533-0.239 0.533-0.533s-0.239-0.533-0.533-0.533h-13.327z"></path>
<path fill="#f4f4f4" style="fill: var(--color3, #f4f4f4)" d="M7.687 26.136h-6.621v-20.791h23.456c0.294 0 0.533-0.239 0.533-0.533s-0.239-0.533-0.533-0.533h-23.456v-3.199h25.056v6.621c0 0.294 0.239 0.533 0.533 0.533s0.533-0.239 0.533-0.533v-7.154c0-0.294-0.239-0.533-0.533-0.533h-26.122c-0.294 0-0.533 0.239-0.533 0.533v26.122c0 0.294 0.239 0.533 0.533 0.533h7.154c0.294 0 0.533-0.239 0.533-0.533s-0.239-0.533-0.533-0.533z"></path>
<path fill="#f4f4f4" style="fill: var(--color3, #f4f4f4)" d="M31.831 29.58l-2.932-2.911 1.717-1.146c0.177-0.116 0.269-0.325 0.235-0.533-0.036-0.208-0.19-0.375-0.395-0.427l-7.159-1.903c-0.183-0.048-0.378 0.005-0.511 0.139s-0.187 0.328-0.139 0.511l1.877 7.159c0.052 0.204 0.219 0.359 0.426 0.395 0.209 0.034 0.418-0.058 0.533-0.235l1.173-1.717 2.932 2.932c0.1 0.1 0.237 0.155 0.378 0.155 0.142 0.001 0.278-0.055 0.378-0.155l1.509-1.509c0.098-0.103 0.151-0.241 0.147-0.383s-0.065-0.277-0.168-0.374zM29.944 30.715l-3.017-3.017c-0.099-0.099-0.233-0.154-0.373-0.155h-0.053c-0.158 0.016-0.301 0.102-0.389 0.235l-0.853 1.274-1.349-5.128 5.129 1.349-1.274 0.864c-0.132 0.088-0.218 0.231-0.235 0.389-0.015 0.158 0.042 0.314 0.155 0.426l3.017 3.017-0.757 0.746z"></path>
<path fill="#f4f4f4" style="fill: var(--color3, #f4f4f4)" d="M22.156 28.007c-1.112 0.462-2.295 0.73-3.497 0.794v-4.798c0.788 0.018 1.575 0.081 2.356 0.187 0.294 0.041 0.567-0.164 0.608-0.458s-0.164-0.567-0.458-0.608c-0.831-0.109-1.668-0.171-2.506-0.187v-4.265h5.331c-0.027 0.836-0.109 1.67-0.245 2.495-0.049 0.294 0.151 0.572 0.445 0.621s0.572-0.151 0.621-0.445c0.142-0.884 0.224-1.776 0.245-2.671h3.732c-0.055 1.201-0.315 2.383-0.768 3.497-0.11 0.271 0.018 0.58 0.288 0.693 0.064 0.027 0.133 0.042 0.203 0.043 0.218 0 0.415-0.133 0.496-0.336 0.569-1.407 0.857-2.912 0.848-4.43 0.001-2.752-0.969-5.416-2.74-7.522-2.226-2.663-5.517-4.203-8.988-4.206h-0.384c-2.589 0.085-5.077 1.022-7.079 2.665-0.228 0.187-0.262 0.523-0.075 0.752s0.523 0.262 0.752 0.074c0.926-0.762 1.973-1.364 3.097-1.78-0.889 0.968-1.587 2.094-2.058 3.321-0.909-0.258-1.799-0.577-2.665-0.954-0.211-0.089-0.456-0.034-0.608 0.139 0 0-0.027 0-0.037 0.032-1.725 2.105-2.667 4.742-2.665 7.463 0 2.726 0.955 5.367 2.697 7.463l0.037 0.042c2.217 2.679 5.511 4.232 8.988 4.238 1.52 0.001 3.025-0.296 4.43-0.874 0.188-0.063 0.325-0.225 0.357-0.421s-0.048-0.393-0.207-0.512c-0.159-0.119-0.37-0.139-0.549-0.054zM17.592 28.753c-1.701-0.272-3.199-1.866-4.163-4.212 1.366-0.321 2.761-0.502 4.163-0.538v4.75zM17.592 22.937c-1.528 0.031-3.049 0.226-4.537 0.581-0.491-1.57-0.759-3.201-0.794-4.846h5.331v4.265zM7.49 18.673h3.705c0.033 1.744 0.313 3.474 0.832 5.139-0.79 0.231-1.566 0.507-2.324 0.826-1.332-1.715-2.104-3.797-2.213-5.965zM22.79 11.742c-1.356 0.317-2.74 0.496-4.132 0.533v-4.745c1.685 0.282 3.167 1.882 4.132 4.211zM17.592 17.606h-5.331c0.033-1.651 0.303-3.288 0.8-4.862 1.485 0.36 3.004 0.56 4.531 0.597v4.265zM18.658 13.341c1.516-0.033 3.024-0.226 4.499-0.576 0.495 1.567 0.764 3.197 0.8 4.841h-5.299v-4.265zM28.787 17.606h-3.732c-0.032-1.742-0.31-3.47-0.826-5.134 0.801-0.23 1.588-0.508 2.356-0.832 1.328 1.716 2.096 3.798 2.202 5.965zM25.855 10.788c-0.651 0.262-1.314 0.489-1.988 0.682-0.468-1.236-1.17-2.369-2.068-3.337 1.528 0.567 2.906 1.475 4.030 2.655h0.027zM17.592 7.525v4.75c-1.402-0.035-2.797-0.213-4.163-0.533 0.965-2.351 2.463-3.945 4.163-4.217zM11.195 17.606h-3.732c0.11-2.166 0.878-4.247 2.202-5.965 0.76 0.32 1.538 0.596 2.33 0.826-0.508 1.667-0.777 3.397-0.8 5.139zM10.422 25.491c0.64-0.257 1.293-0.481 1.957-0.672 0.469 1.221 1.163 2.342 2.047 3.305-1.518-0.561-2.887-1.462-4.004-2.634z"></path>
<path fill="#f4f4f4" style="fill: var(--color3, #f4f4f4)" d="M30.429 13.011c0.082 0.199 0.275 0.329 0.491 0.331 0.070 0.002 0.139-0.013 0.203-0.043 0.27-0.113 0.398-0.422 0.288-0.693-0.549-1.326-1.297-2.561-2.218-3.662-0.196-0.175-0.489-0.181-0.693-0.016s-0.255 0.456-0.123 0.682c0.852 1.024 1.544 2.17 2.052 3.401z"></path>
<path fill="#f4f4f4" style="fill: var(--color3, #f4f4f4)" d="M7.053 8.943c-2.146 2.584-3.321 5.837-3.321 9.196 0 0.294 0.239 0.533 0.533 0.533s0.533-0.239 0.533-0.533c-0.003-3.115 1.085-6.133 3.076-8.53 0.188-0.227 0.158-0.563-0.069-0.752s-0.563-0.157-0.752 0.069v0.016z"></path>
</symbol>
<symbol id="smile" viewBox="0 0 32 32">
<path fill="#fee565" style="fill: var(--color1, #fee565)" d="M32 16c0 8.837-7.163 16-16 16s-16-7.163-16-16c0-8.837 7.163-16 16-16s16 7.163 16 16z"></path>
<path fill="#fdd62f" style="fill: var(--color2, #fdd62f)" d="M4.971 16c0-7.991 5.859-14.614 13.515-15.808-0.81-0.126-1.641-0.192-2.487-0.192-8.837 0-16 7.163-16 16s7.163 16 16 16c0.846 0 1.677-0.066 2.487-0.192-7.656-1.194-13.516-7.817-13.516-15.808z"></path>
<path fill="#685e67" style="fill: var(--color3, #685e67)" d="M16 23.734c-1.397 0-2.737-0.424-3.874-1.227-1.112-0.784-1.951-1.87-2.428-3.139-0.094-0.251 0.033-0.53 0.284-0.624s0.53 0.033 0.624 0.284c0.839 2.235 3.006 3.737 5.394 3.737s4.555-1.502 5.394-3.737c0.094-0.251 0.374-0.378 0.624-0.284s0.378 0.373 0.284 0.624c-0.476 1.269-1.316 2.355-2.428 3.139-1.138 0.803-2.477 1.227-3.874 1.227z"></path>
<path fill="#685e67" style="fill: var(--color3, #685e67)" d="M12.637 14.2c-0.268 0-0.485-0.217-0.485-0.485 0-1.080-0.879-1.958-1.958-1.958s-1.958 0.879-1.958 1.958c0 0.268-0.217 0.485-0.485 0.485s-0.485-0.217-0.485-0.485c0-1.614 1.313-2.928 2.928-2.928s2.928 1.313 2.928 2.928c0 0.268-0.217 0.485-0.485 0.485z"></path>
<path fill="#685e67" style="fill: var(--color3, #685e67)" d="M24.314 14.2c-0.268 0-0.485-0.217-0.485-0.485 0-1.080-0.879-1.958-1.958-1.958s-1.958 0.879-1.958 1.958c0 0.268-0.217 0.485-0.485 0.485s-0.485-0.217-0.485-0.485c0-1.614 1.314-2.928 2.928-2.928s2.928 1.313 2.928 2.928c0 0.268-0.217 0.485-0.485 0.485z"></path>
<path fill="#f37e7f" style="fill: var(--color4, #f37e7f)" d="M2.759 18.616c-0.053 0-0.106-0.009-0.159-0.027-0.253-0.088-0.387-0.364-0.3-0.617l0.715-2.066c0.088-0.253 0.364-0.387 0.617-0.3s0.387 0.364 0.3 0.617l-0.715 2.066c-0.069 0.201-0.257 0.326-0.458 0.326z"></path>
<path fill="#f37e7f" style="fill: var(--color4, #f37e7f)" d="M5.004 18.616c-0.053 0-0.106-0.009-0.159-0.027-0.253-0.088-0.387-0.364-0.3-0.617l0.715-2.066c0.088-0.253 0.364-0.387 0.617-0.3s0.387 0.364 0.3 0.617l-0.715 2.066c-0.069 0.201-0.257 0.326-0.458 0.326z"></path>
<path fill="#f37e7f" style="fill: var(--color4, #f37e7f)" d="M26.346 18.616c-0.053 0-0.106-0.009-0.159-0.027-0.253-0.088-0.387-0.364-0.3-0.617l0.715-2.066c0.088-0.253 0.364-0.387 0.617-0.3s0.387 0.364 0.3 0.617l-0.715 2.066c-0.069 0.201-0.257 0.326-0.458 0.326z"></path>
<path fill="#f37e7f" style="fill: var(--color4, #f37e7f)" d="M28.59 18.616c-0.053 0-0.106-0.009-0.159-0.027-0.253-0.088-0.387-0.364-0.3-0.617l0.715-2.066c0.088-0.253 0.364-0.387 0.617-0.3s0.387 0.364 0.3 0.617l-0.715 2.066c-0.069 0.201-0.257 0.326-0.458 0.326z"></path>
</symbol>
<symbol id="down_arrow" viewBox="0 0 32 32">
<path fill="#4d6156" style="fill: var(--color1, #4d6156)" d="M15.507 31.776l-15.304-16.76c-0.13-0.143-0.203-0.337-0.203-0.539v-13.713c-0.001-0.421 0.31-0.762 0.694-0.763 0.185-0 0.363 0.080 0.494 0.224l14.812 16.223 14.812-16.223c0.271-0.298 0.712-0.298 0.984-0.001 0.131 0.143 0.205 0.338 0.204 0.541v13.713c0 0.202-0.073 0.396-0.203 0.539l-15.304 16.76c-0.271 0.298-0.712 0.299-0.984 0.001l-0.001-0.001z"></path>
</symbol>
</defs>
</svg>
